# xmcd
# 
# Track frame offsets:
#     150
#     13110
#     26572
#     37377
#     51610
#     62192
#     74097
#     84132
#     95730
#     108310
#     123062
#     137332
#     148635
# 
# Disc length: 2149
# 
# Revision: 0
# Processed by: cddbd v1.5.2PL0 Copyright (c) Steve Scherf et al.
# Submitted via: fre:ac v1.0.17
# 
DISCID=bd08630d
DTITLE=Johnny Horton - Johnny Horton's Greatest Hits
DYEAR=1961
DGENRE=Country
TTITLE0=North To Alaska
TTITLE1=Whispering Pines
TTITLE2=Johnny Reb
TTITLE3=The Mansion You Stole
TTITLE4=I'm Ready When You Are
TTITLE5=When It's Springtime In Alaska
TTITLE6=Honky Tonk Man
TTITLE7=The Battle Of New Orleans
TTITLE8=All For The Love Of A Girl
TTITLE9=Sink The Bismarck
TTITLE10=Comanche
TTITLE11=Jim Bridger
TTITLE12=Johnny Freedom
EXTD=
EXTT0=
EXTT1=
EXTT2=
EXTT3=
EXTT4=
EXTT5=(It's Forty Below]\n
EXTT6=
EXTT7=
EXTT8=
EXTT9=
EXTT10=(The Brave Horse]\n
EXTT11=
EXTT12=
PLAYORDER=
